<?xml version="1.0" encoding="UTF-8"?>
<svg width="700pt" height="700pt" version="1.1" viewBox="0 0 700 700" xmlns="http://www.w3.org/2000/svg" xmlns:xlink="http://www.w3.org/1999/xlink">
 <defs>
  <symbol id="h" overflow="visible">
   <path d="m39.078-2.3281c-2.0117 1.043-4.1094 1.8281-6.2969 2.3594s-4.4648 0.79688-6.8281 0.79688c-7.0859 0-12.699-1.9766-16.844-5.9375-4.1367-3.957-6.2031-9.3281-6.2031-16.109 0-6.7891 2.0664-12.164 6.2031-16.125 4.1445-3.9688 9.7578-5.9531 16.844-5.9531 2.3633 0 4.6406 0.26562 6.8281 0.79688s4.2852 1.3242 6.2969 2.375v8.7969c-2.0312-1.3828-4.0391-2.3984-6.0156-3.0469-1.9688-0.64453-4.0469-0.96875-6.2344-0.96875-3.9062 0-6.9844 1.2578-9.2344 3.7656-2.2422 2.5-3.3594 5.9531-3.3594 10.359 0 4.3867 1.1172 7.8359 3.3594 10.344 2.25 2.5 5.3281 3.75 9.2344 3.75 2.1875 0 4.2656-0.32031 6.2344-0.96875 1.9766-0.64453 3.9844-1.6602 6.0156-3.0469z"/>
  </symbol>
  <symbol id="g" overflow="visible">
   <path d="m16.031-40.953v9.0625h10.516v7.2812h-10.516v13.531c0 1.4805 0.28906 2.4805 0.875 3 0.59375 0.52344 1.7656 0.78125 3.5156 0.78125h5.2344v7.2969h-8.7344c-4.0312 0-6.8867-0.83594-8.5625-2.5156-1.6797-1.6875-2.5156-4.5391-2.5156-8.5625v-13.531h-5.0781v-7.2812h5.0781v-9.0625z"/>
  </symbol>
  <symbol id="f" overflow="visible">
   <path d="m26.594-27.234v-17.078h10.266v44.312h-10.266v-4.6094c-1.3984 1.875-2.9453 3.25-4.6406 4.125-1.6875 0.875-3.6406 1.3125-5.8594 1.3125-3.9297 0-7.1562-1.5625-9.6875-4.6875-2.5234-3.125-3.7812-7.1445-3.7812-12.062 0-4.9141 1.2578-8.9375 3.7812-12.062 2.5312-3.125 5.7578-4.6875 9.6875-4.6875 2.1953 0 4.1445 0.44531 5.8438 1.3281 1.707 0.88672 3.2578 2.2578 4.6562 4.1094zm-6.7188 20.656c2.1875 0 3.8516-0.79688 5-2.3906 1.1445-1.5938 1.7188-3.9102 1.7188-6.9531 0-3.0391-0.57422-5.3594-1.7188-6.9531-1.1484-1.5938-2.8125-2.3906-5-2.3906-2.168 0-3.8242 0.79688-4.9688 2.3906-1.1484 1.5938-1.7188 3.9141-1.7188 6.9531 0 3.043 0.57031 5.3594 1.7188 6.9531 1.1445 1.5938 2.8008 2.3906 4.9688 2.3906z"/>
  </symbol>
  <symbol id="e" overflow="visible">
   <path d="m21.875-6.5781c2.1758 0 3.8359-0.79688 4.9844-2.3906 1.1562-1.5938 1.7344-3.9102 1.7344-6.9531 0-3.0391-0.57812-5.3594-1.7344-6.9531-1.1484-1.5938-2.8086-2.3906-4.9844-2.3906-2.1875 0-3.8672 0.80469-5.0312 2.4062-1.168 1.6055-1.75 3.918-1.75 6.9375 0 3.0234 0.58203 5.3359 1.75 6.9375 1.1641 1.6055 2.8438 2.4062 5.0312 2.4062zm-6.7812-20.656c1.4062-1.8516 2.9609-3.2227 4.6719-4.1094 1.707-0.88281 3.6719-1.3281 5.8906-1.3281 3.9375 0 7.1641 1.5625 9.6875 4.6875 2.5195 3.125 3.7812 7.1484 3.7812 12.062 0 4.918-1.2617 8.9375-3.7812 12.062-2.5234 3.125-5.75 4.6875-9.6875 4.6875-2.2188 0-4.1836-0.44531-5.8906-1.3281-1.7109-0.88281-3.2656-2.2539-4.6719-4.1094v4.6094h-10.188v-44.312h10.188z"/>
  </symbol>
  <symbol id="d" overflow="visible">
   <path d="m5.3594-42.516h29.594v8.2812h-18.641v7.9219h17.516v8.2812h-17.516v18.031h-10.953z"/>
  </symbol>
  <symbol id="c" overflow="visible">
   <path d="m36.969-19.422v19.422h-10.25v-14.812c0-2.7891-0.0625-4.707-0.1875-5.75-0.125-1.0391-0.33984-1.8125-0.64062-2.3125-0.39844-0.65625-0.9375-1.1719-1.625-1.5469s-1.4648-0.5625-2.3281-0.5625c-2.1367 0-3.8125 0.82422-5.0312 2.4688-1.2109 1.6484-1.8125 3.9219-1.8125 6.8281v15.688h-10.188v-44.312h10.188v17.078c1.5391-1.8516 3.1719-3.2227 4.8906-4.1094 1.7266-0.88281 3.6406-1.3281 5.7344-1.3281 3.6875 0 6.4844 1.1328 8.3906 3.3906 1.9062 2.2617 2.8594 5.5469 2.8594 9.8594z"/>
  </symbol>
  <symbol id="b" overflow="visible">
   <path d="m4.9062-31.891h10.188v31.891h-10.188zm0-12.422h10.188v8.3125h-10.188z"/>
  </symbol>
  <symbol id="a" overflow="visible">
   <path d="m20.938-23.672c2.2891 0 3.9375-0.42578 4.9375-1.2812 1-0.85156 1.5-2.2578 1.5-4.2188 0-1.9258-0.5-3.3047-1.5-4.1406-1-0.84375-2.6484-1.2656-4.9375-1.2656h-4.625v10.906zm-4.625 7.5781v16.094h-10.953v-42.516h16.734c5.6016 0 9.707 0.94531 12.312 2.8281 2.6133 1.875 3.9219 4.8438 3.9219 8.9062 0 2.8047-0.67969 5.1094-2.0312 6.9219-1.3555 1.8047-3.4023 3.1328-6.1406 3.9844 1.5 0.34375 2.8438 1.1211 4.0312 2.3281 1.1875 1.1992 2.3906 3.0234 3.6094 5.4688l5.9531 12.078h-11.688l-5.1719-10.562c-1.0547-2.125-2.1172-3.5781-3.1875-4.3594-1.0742-0.78125-2.5-1.1719-4.2812-1.1719z"/>
  </symbol>
 </defs>
 <g>
  <path d="m543.79 31.148c-2.7461-2.2188-6.3516-3.0781-9.8008-2.332l-262.5 58.332c-5.4297 1.2227-9.2383 6.1055-9.1016 11.668v309.52h-61.832c-18.363 0.15234-35.934 7.5156-48.918 20.5-12.984 12.988-20.348 30.555-20.5 48.918v4.1992c0 13.242 5.2617 25.945 14.625 35.309 9.3633 9.3633 22.066 14.625 35.309 14.625h33.016c19 0 37.219-7.5469 50.652-20.98s20.98-31.652 20.98-50.652v-250.25l239.29-59.383v216.77h-61.832c-18.379 0-36.008 7.3008-49.004 20.297-12.996 12.996-20.297 30.625-20.297 49.004v4.1992c0 13.164 5.1953 25.793 14.461 35.145 9.2617 9.3516 21.844 14.668 35.004 14.789h32.902c19.059 0.125 37.379-7.3516 50.91-20.773 13.535-13.422 21.156-31.684 21.188-50.742v-379.05c-0.042969-3.5703-1.7188-6.9219-4.5469-9.1016zm-281.4 428.64c-0.03125 12.797-5.1289 25.066-14.18 34.117-9.0508 9.0508-21.32 14.148-34.121 14.18h-33.016c-7.0469-0.03125-13.793-2.8398-18.773-7.8242-4.9844-4.9805-7.7969-11.73-7.8281-18.773v-4.1992c0.27344-12.094 5.2305-23.609 13.828-32.121 8.5938-8.5117 20.16-13.348 32.258-13.496h61.832zm23.332-273.46v-78.285l239.29-53.203v71.75zm239.29 232.98c0 12.797-5.0938 25.07-14.152 34.109-9.0625 9.043-21.348 14.105-34.148 14.074h-33.367c-7.0547 0-13.82-2.8047-18.809-7.793-4.9883-4.9883-7.7891-11.754-7.7891-18.809v-4.1992c-0.03125-12.199 4.8008-23.91 13.43-32.539 8.625-8.625 20.336-13.457 32.535-13.43h62.301z"/>
  <use x="70" y="735" xlink:href="#h"/>
  <use x="220.503906" y="735" xlink:href="#g"/>
  <use x="287.953125" y="735" xlink:href="#f"/>
  <use x="350.015625" y="735" xlink:href="#e"/>
  <use x="450.105469" y="735" xlink:href="#d"/>
  <use x="529.316406" y="735" xlink:href="#c"/>
  <use x="631.628906" y="735" xlink:href="#b"/>
  <use x="671.933594" y="735" xlink:href="#a"/>
 </g>
</svg>
