<?xml version="1.0" encoding="UTF-8"?>
<svg width="700pt" height="700pt" version="1.1" viewBox="0 0 700 700" xmlns="http://www.w3.org/2000/svg" xmlns:xlink="http://www.w3.org/1999/xlink">
 <defs>
  <symbol id="t" overflow="visible">
   <path d="m20.172-1.2031c-1.043 0.54297-2.125 0.94922-3.25 1.2188s-2.3047 0.40625-3.5312 0.40625c-3.6562 0-6.5547-1.0195-8.6875-3.0625-2.1367-2.0391-3.2031-4.8125-3.2031-8.3125 0-3.5078 1.0664-6.2852 3.2031-8.3281 2.1328-2.0391 5.0312-3.0625 8.6875-3.0625 1.2266 0 2.4062 0.13672 3.5312 0.40625 1.125 0.27344 2.207 0.67969 3.25 1.2188v4.5469c-1.0547-0.71875-2.0898-1.2422-3.1094-1.5781-1.0117-0.33203-2.0859-0.5-3.2188-0.5-2.0117 0-3.6016 0.65234-4.7656 1.9531-1.1562 1.293-1.7344 3.0742-1.7344 5.3438 0 2.2617 0.57812 4.043 1.7344 5.3438 1.1641 1.293 2.7539 1.9375 4.7656 1.9375 1.1328 0 2.207-0.16406 3.2188-0.5 1.0195-0.33203 2.0547-0.85938 3.1094-1.5781z"/>
  </symbol>
  <symbol id="b" overflow="visible">
   <path d="m14.766-11.984c-0.46875-0.21875-0.93359-0.375-1.3906-0.46875-0.44922-0.10156-0.90234-0.15625-1.3594-0.15625-1.3555 0-2.3984 0.43359-3.125 1.2969-0.73047 0.86719-1.0938 2.1055-1.0938 3.7188v7.5938h-5.2656v-16.469h5.2656v2.7031c0.67578-1.0703 1.4531-1.8516 2.3281-2.3438 0.875-0.5 1.9258-0.75 3.1562-0.75 0.17578 0 0.36328 0.011719 0.5625 0.03125 0.20703 0.011719 0.50781 0.039063 0.90625 0.078125z"/>
  </symbol>
  <symbol id="a" overflow="visible">
   <path d="m18.969-8.2812v1.5h-12.312c0.125 1.2422 0.56641 2.168 1.3281 2.7812 0.76953 0.61719 1.8438 0.92188 3.2188 0.92188 1.1016 0 2.2344-0.16016 3.3906-0.48438 1.1641-0.33203 2.3633-0.83203 3.5938-1.5v4.0625c-1.25 0.46875-2.5 0.82422-3.75 1.0625-1.2422 0.23828-2.4805 0.35938-3.7188 0.35938-2.9805 0-5.2969-0.75391-6.9531-2.2656-1.6484-1.5078-2.4688-3.6328-2.4688-6.375 0-2.6875 0.80469-4.7969 2.4219-6.3281 1.625-1.5391 3.8594-2.3125 6.7031-2.3125 2.5938 0 4.6641 0.78125 6.2188 2.3438 1.5508 1.5547 2.3281 3.6328 2.3281 6.2344zm-5.4062-1.75c0-1-0.29297-1.8008-0.875-2.4062-0.58594-0.61328-1.3516-0.92188-2.2969-0.92188-1.0234 0-1.8516 0.28906-2.4844 0.85938-0.63672 0.57422-1.0312 1.3984-1.1875 2.4688z"/>
  </symbol>
  <symbol id="g" overflow="visible">
   <path d="m9.9062-7.4062c-1.0938 0-1.9219 0.1875-2.4844 0.5625-0.55469 0.36719-0.82812 0.91406-0.82812 1.6406 0 0.66797 0.22266 1.1875 0.67188 1.5625 0.44531 0.375 1.0664 0.5625 1.8594 0.5625 0.98828 0 1.8203-0.35156 2.5-1.0625 0.67578-0.70703 1.0156-1.5977 1.0156-2.6719v-0.59375zm8.0469-1.9844v9.3906h-5.3125v-2.4375c-0.71094 1-1.5078 1.7305-2.3906 2.1875-0.875 0.44531-1.9453 0.67188-3.2031 0.67188-1.7109 0-3.0938-0.49219-4.1562-1.4844-1.0625-1-1.5938-2.2891-1.5938-3.875 0-1.9375 0.66016-3.3516 1.9844-4.25 1.332-0.90625 3.4219-1.3594 6.2656-1.3594h3.0938v-0.40625c0-0.83203-0.32812-1.4414-0.98438-1.8281-0.65625-0.38281-1.6836-0.57812-3.0781-0.57812-1.125 0-2.1719 0.11719-3.1406 0.34375-0.96875 0.21875-1.8711 0.55469-2.7031 1v-4.0156c1.125-0.26953 2.2539-0.47266 3.3906-0.60938 1.1445-0.14453 2.2852-0.21875 3.4219-0.21875 2.9688 0 5.1094 0.58984 6.4219 1.7656 1.3203 1.168 1.9844 3.0703 1.9844 5.7031z"/>
  </symbol>
  <symbol id="d" overflow="visible">
   <path d="m8.2812-21.141v4.6719h5.4219v3.7656h-5.4219v6.9844c0 0.76172 0.14844 1.2773 0.45312 1.5469 0.30078 0.27344 0.90625 0.40625 1.8125 0.40625h2.7031v3.7656h-4.5156c-2.0859 0-3.5586-0.42969-4.4219-1.2969-0.86719-0.875-1.2969-2.3477-1.2969-4.4219v-6.9844h-2.625v-3.7656h2.625v-4.6719z"/>
  </symbol>
  <symbol id="k" overflow="visible">
   <path d="m13.734-14.062v-8.8125h5.2969v22.875h-5.2969v-2.375c-0.73047 0.96875-1.5312 1.6797-2.4062 2.125-0.86719 0.44531-1.8711 0.67188-3.0156 0.67188-2.0312 0-3.6992-0.80078-5-2.4062-1.3047-1.6133-1.9531-3.6914-1.9531-6.2344 0-2.5391 0.64844-4.6133 1.9531-6.2188 1.3008-1.6133 2.9688-2.4219 5-2.4219 1.1328 0 2.1406 0.23047 3.0156 0.6875 0.875 0.44922 1.6758 1.1523 2.4062 2.1094zm-3.4688 10.672c1.125 0 1.9844-0.41016 2.5781-1.2344 0.59375-0.82031 0.89062-2.0195 0.89062-3.5938 0-1.5703-0.29688-2.7695-0.89062-3.5938-0.59375-0.82031-1.4531-1.2344-2.5781-1.2344s-1.9844 0.41406-2.5781 1.2344c-0.58594 0.82422-0.875 2.0234-0.875 3.5938 0 1.5742 0.28906 2.7734 0.875 3.5938 0.59375 0.82422 1.4531 1.2344 2.5781 1.2344z"/>
  </symbol>
  <symbol id="j" overflow="visible">
   <path d="m11.297-3.3906c1.125 0 1.9844-0.41016 2.5781-1.2344 0.59375-0.82031 0.89062-2.0195 0.89062-3.5938 0-1.5703-0.29688-2.7695-0.89062-3.5938-0.59375-0.82031-1.4531-1.2344-2.5781-1.2344-1.1367 0-2.0078 0.41797-2.6094 1.25-0.59375 0.82422-0.89062 2.0156-0.89062 3.5781s0.29688 2.7617 0.89062 3.5938c0.60156 0.82422 1.4727 1.2344 2.6094 1.2344zm-3.5-10.672c0.71875-0.95703 1.5195-1.6602 2.4062-2.1094 0.88281-0.45703 1.8984-0.6875 3.0469-0.6875 2.0312 0 3.6953 0.80859 5 2.4219 1.3008 1.6055 1.9531 3.6797 1.9531 6.2188 0 2.543-0.65234 4.6211-1.9531 6.2344-1.3047 1.6055-2.9688 2.4062-5 2.4062-1.1484 0-2.1641-0.22656-3.0469-0.67188-0.88672-0.45703-1.6875-1.1641-2.4062-2.125v2.375h-5.2656v-22.875h5.2656z"/>
  </symbol>
  <symbol id="i" overflow="visible">
   <path d="m0.375-16.469h5.25l4.4375 11.172 3.75-11.172h5.2656l-6.9219 18.031c-0.69922 1.832-1.5117 3.1133-2.4375 3.8438-0.91797 0.72656-2.1367 1.0938-3.6562 1.0938h-3.0469v-3.4531h1.6406c0.89453 0 1.5469-0.14844 1.9531-0.4375 0.40625-0.28125 0.72266-0.78906 0.95312-1.5156l0.14062-0.46875z"/>
  </symbol>
  <symbol id="f" overflow="visible">
   <path d="m2.3594-6.4062v-10.062h5.2812v1.6562c0 0.88672-0.007813 2.0078-0.015625 3.3594-0.011719 1.3438-0.015625 2.2422-0.015625 2.6875 0 1.3242 0.035156 2.2773 0.10938 2.8594 0.070312 0.58594 0.19141 1.0117 0.35938 1.2812 0.20703 0.34375 0.48438 0.60938 0.82812 0.79688 0.35156 0.17969 0.75391 0.26562 1.2031 0.26562 1.1016 0 1.9688-0.42188 2.5938-1.2656s0.9375-2.0156 0.9375-3.5156v-8.125h5.2656v16.469h-5.2656v-2.375c-0.79297 0.96094-1.6328 1.668-2.5156 2.125-0.88672 0.44531-1.8672 0.67188-2.9375 0.67188-1.8984 0-3.3438-0.58203-4.3438-1.75-0.99219-1.1641-1.4844-2.8594-1.4844-5.0781z"/>
  </symbol>
  <symbol id="s" overflow="visible">
   <path d="m2.5312-22.875h5.2656v12.453l6.0469-6.0469h6.125l-8.0469 7.5625 8.6719 8.9062h-6.375l-6.4219-6.8594v6.8594h-5.2656z"/>
  </symbol>
  <symbol id="e" overflow="visible">
   <path d="m19.078-10.031v10.031h-5.2812v-7.6719c0-1.4258-0.039063-2.4062-0.10938-2.9375-0.0625-0.53906-0.17188-0.94141-0.32812-1.2031-0.19922-0.33203-0.47656-0.59375-0.82812-0.78125-0.35547-0.19531-0.75781-0.29688-1.2031-0.29688-1.1055 0-1.9688 0.42969-2.5938 1.2812-0.625 0.84375-0.9375 2.0156-0.9375 3.5156v8.0938h-5.2656v-16.469h5.2656v2.4062c0.78906-0.95703 1.6289-1.6602 2.5156-2.1094 0.89453-0.45703 1.8828-0.6875 2.9688-0.6875 1.8945 0 3.332 0.58594 4.3125 1.75 0.98828 1.168 1.4844 2.8594 1.4844 5.0781z"/>
  </symbol>
  <symbol id="r" overflow="visible">
   <path d="m2.5312-16.469h5.2656v16.469h-5.2656zm0-6.4062h5.2656v4.2969h-5.2656z"/>
  </symbol>
  <symbol id="h" overflow="visible">
   <path d="m15.828-15.953v4.2969c-0.71094-0.48828-1.4297-0.84766-2.1562-1.0781-0.71875-0.23828-1.4648-0.35938-2.2344-0.35938-1.4688 0-2.6172 0.42969-3.4375 1.2812-0.8125 0.85547-1.2188 2.0547-1.2188 3.5938 0 1.543 0.40625 2.7422 1.2188 3.5938 0.82031 0.85547 1.9688 1.2812 3.4375 1.2812 0.82031 0 1.6016-0.11719 2.3438-0.35938 0.73828-0.25 1.4219-0.61328 2.0469-1.0938v4.3125c-0.82422 0.30469-1.6562 0.52344-2.5 0.67188-0.84375 0.15625-1.6953 0.23438-2.5469 0.23438-2.9688 0-5.293-0.75781-6.9688-2.2812-1.6797-1.5195-2.5156-3.6406-2.5156-6.3594s0.83594-4.8359 2.5156-6.3594c1.6758-1.5195 4-2.2812 6.9688-2.2812 0.85156 0 1.6953 0.078125 2.5312 0.23438 0.84375 0.14844 1.6797 0.37109 2.5156 0.67188z"/>
  </symbol>
  <symbol id="c" overflow="visible">
   <path d="m10.359-13.094c-1.168 0-2.0586 0.42188-2.6719 1.2656-0.60547 0.83594-0.90625 2.0391-0.90625 3.6094 0 1.5859 0.30078 2.793 0.90625 3.625 0.61328 0.83594 1.5039 1.25 2.6719 1.25 1.1445 0 2.0195-0.41406 2.625-1.25 0.61328-0.83203 0.92188-2.0391 0.92188-3.625 0-1.5703-0.30859-2.7734-0.92188-3.6094-0.60547-0.84375-1.4805-1.2656-2.625-1.2656zm0-3.7656c2.832 0 5.0469 0.76562 6.6406 2.2969 1.5938 1.5234 2.3906 3.6367 2.3906 6.3438 0 2.7109-0.79688 4.8281-2.3906 6.3594-1.5938 1.5234-3.8086 2.2812-6.6406 2.2812-2.8438 0-5.0703-0.75781-6.6719-2.2812-1.5938-1.5312-2.3906-3.6484-2.3906-6.3594 0-2.707 0.79688-4.8203 2.3906-6.3438 1.6016-1.5312 3.8281-2.2969 6.6719-2.2969z"/>
  </symbol>
  <symbol id="q" overflow="visible">
   <path d="m13.359-22.875v3.4531h-2.9062c-0.75 0-1.2734 0.13672-1.5625 0.40625-0.29297 0.27344-0.4375 0.74219-0.4375 1.4062v1.1406h4.5v3.7656h-4.5v12.703h-5.2656v-12.703h-2.6094v-3.7656h2.6094v-1.1406c0-1.7891 0.5-3.1133 1.5-3.9688 1-0.86328 2.5469-1.2969 4.6406-1.2969z"/>
  </symbol>
  <symbol id="p" overflow="visible">
   <path d="m17.797-13.734c0.65625-1.0195 1.4414-1.7969 2.3594-2.3281 0.91406-0.53125 1.9258-0.79688 3.0312-0.79688 1.8828 0 3.3203 0.58594 4.3125 1.75 0.98828 1.168 1.4844 2.8594 1.4844 5.0781v10.031h-5.2812v-8.5781c0.007813-0.13281 0.015625-0.26953 0.015625-0.40625 0.007812-0.13281 0.015625-0.33203 0.015625-0.59375 0-1.1641-0.17188-2.0078-0.51562-2.5312-0.34375-0.51953-0.90234-0.78125-1.6719-0.78125-1 0-1.7734 0.41406-2.3125 1.2344-0.54297 0.82422-0.82422 2.0117-0.84375 3.5625v8.0938h-5.2969v-8.5781c0-1.832-0.15625-3.0078-0.46875-3.5312-0.3125-0.51953-0.87109-0.78125-1.6719-0.78125-1.0117 0-1.793 0.41797-2.3438 1.25-0.54297 0.82422-0.8125 2.0078-0.8125 3.5469v8.0938h-5.2969v-16.469h5.2969v2.4062c0.64453-0.92578 1.3828-1.625 2.2188-2.0938 0.84375-0.46875 1.7695-0.70312 2.7812-0.70312 1.1328 0 2.1328 0.27734 3 0.82812 0.875 0.54297 1.5391 1.3086 2 2.2969z"/>
  </symbol>
  <symbol id="o" overflow="visible">
   <path d="m19.078-10.031v10.031h-5.2812v-7.6406c0-1.4453-0.039063-2.4375-0.10938-2.9688-0.0625-0.53906-0.17188-0.94141-0.32812-1.2031-0.19922-0.33203-0.47656-0.59375-0.82812-0.78125-0.35547-0.19531-0.75781-0.29688-1.2031-0.29688-1.1055 0-1.9688 0.42969-2.5938 1.2812-0.625 0.84375-0.9375 2.0156-0.9375 3.5156v8.0938h-5.2656v-22.875h5.2656v8.8125c0.78906-0.95703 1.6289-1.6602 2.5156-2.1094 0.89453-0.45703 1.8828-0.6875 2.9688-0.6875 1.8945 0 3.332 0.58594 4.3125 1.75 0.98828 1.168 1.4844 2.8594 1.4844 5.0781z"/>
  </symbol>
  <symbol id="n" overflow="visible">
   <path d="m2.7656-21.953h6.3125l7.9844 15.062v-15.062h5.375v21.953h-6.3281l-7.9844-15.062v15.062h-5.3594z"/>
  </symbol>
  <symbol id="m" overflow="visible">
   <path d="m2.7656-21.953h9.3906c2.7891 0 4.9297 0.62109 6.4219 1.8594 1.5 1.2422 2.25 3.0078 2.25 5.2969 0 2.3125-0.75 4.0898-2.25 5.3281-1.4922 1.2422-3.6328 1.8594-6.4219 1.8594h-3.7344v7.6094h-5.6562zm5.6562 4.1094v6.125h3.1406c1.0938 0 1.9375-0.26562 2.5312-0.79688 0.60156-0.53125 0.90625-1.2891 0.90625-2.2812 0-0.97656-0.30469-1.7266-0.90625-2.25-0.59375-0.53125-1.4375-0.79688-2.5312-0.79688z"/>
  </symbol>
  <symbol id="l" overflow="visible">
   <path d="m2.5312-16.469h5.2656v16.172c0 2.207-0.53125 3.8906-1.5938 5.0469-1.0625 1.1641-2.5938 1.75-4.5938 1.75h-2.6094v-3.4531h0.90625c1 0 1.6875-0.23047 2.0625-0.6875 0.375-0.44922 0.5625-1.3359 0.5625-2.6562zm0-6.4062h5.2656v4.2969h-5.2656z"/>
  </symbol>
 </defs>
 <g>
  <path d="m127.38 56.434c0.21875-0.30078 0.42188-0.61328 0.60156-0.9375 1.7461-3.082 3.8945-5.918 6.3828-8.4336 27.699 51.305 59.906 100.04 96.25 145.62l-12.645 10.418h-0.003906c-4.6562 3.832-7.8125 9.1797-8.9141 15.109-1.1016 5.9297-0.074219 12.055 2.8945 17.305 28.008 49.738 50.02 80.609 75.984 106.58 25.965 25.973 56.848 47.984 106.58 75.992v-0.003906c5.25 2.9648 11.379 3.9844 17.305 2.8789 5.9297-1.1055 11.277-4.2695 15.102-8.9297l10.418-12.645c45.582 36.332 94.309 68.531 145.61 96.219-2.5156 2.4922-5.3477 4.6406-8.4297 6.3867-0.32422 0.18359-0.63281 0.38281-0.93359 0.60156-21.652 16.16-46.852 26.918-73.5 31.379-90.809-4.418-189.15-53.254-269.98-134.08-80.832-80.824-129.67-179.16-134.1-269.97 4.4648-26.645 15.223-51.84 31.383-73.492zm78.328-30.461c-24.484 0.47656-43.66 4.2148-57.398 11.152v-0.003906c27.367 51.043 59.293 99.508 95.383 144.8l30.434-25.051h-0.003906c3.2656-2.6445 5.4492-6.3945 6.1367-10.543 0.6875-4.1445-0.16797-8.4023-2.4062-11.957l-64.539-104.26c-1.5508-2.6992-4.4805-4.2969-7.5859-4.1367zm267.42 329.9-25.055 30.438h-0.003907c45.297 36.098 93.762 68.031 144.8 95.41 6.9414-13.742 10.676-32.918 11.152-57.402 0.16016-3.1133-1.4336-6.0586-4.1328-7.6289l-104.27-64.539c-3.5547-2.2383-7.8047-3.0938-11.949-2.4102-4.1445 0.68359-7.8945 2.8633-10.539 6.125zm-255 56c38.945 39.199 83.789 72.059 132.91 97.375 46.203 24.328 97.055 38.551 149.18 41.723h0.39453c0.48047-0.003906 0.95703-0.042969 1.4297-0.12109 29.457-4.8008 57.332-16.59 81.293-34.379 24.086-13.887 36.73-44.781 37.652-91.852 0.13672-4.4609-0.91797-8.8828-3.0547-12.805s-5.2773-7.2031-9.1016-9.5078l-104.29-64.559c-7.0352-4.4258-15.445-6.1211-23.641-4.7656-8.1992 1.3555-15.613 5.668-20.848 12.125l-46.215 56.172c-2.668 3.3086-7.3477 4.1836-11.031 2.0625-90.562-51.008-125.13-85.57-176.13-176.14-2.1289-3.6797-1.2539-8.3633 2.0586-11.023l56.168-46.234c6.457-5.2305 10.773-12.648 12.129-20.848 1.3555-8.1953-0.33984-16.609-4.7695-23.641l-64.562-104.27c-2.3047-3.8281-5.5859-6.9727-9.5078-9.1094s-8.3438-3.1875-12.809-3.0508c-47.07 0.91797-77.965 13.586-91.852 37.648-17.789 23.961-29.574 51.836-34.371 81.289-0.10156 0.59766-0.14062 1.2031-0.11328 1.8086 3.1719 52.121 17.391 102.98 41.711 149.19 25.32 49.113 58.18 93.961 97.379 132.91z" fill-rule="evenodd"/>
  <use x="70" y="650.324219" xlink:href="#t"/>
  <use x="92.09375" y="650.324219" xlink:href="#b"/>
  <use x="106.945312" y="650.324219" xlink:href="#a"/>
  <use x="127.363281" y="650.324219" xlink:href="#g"/>
  <use x="147.679688" y="650.324219" xlink:href="#d"/>
  <use x="162.070312" y="650.324219" xlink:href="#a"/>
  <use x="182.492188" y="650.324219" xlink:href="#k"/>
  <use x="214.523437" y="650.324219" xlink:href="#j"/>
  <use x="236.078125" y="650.324219" xlink:href="#i"/>
  <use x="266.183594" y="650.324219" xlink:href="#b"/>
  <use x="281.03125" y="650.324219" xlink:href="#f"/>
  <use x="302.464844" y="650.324219" xlink:href="#s"/>
  <use x="322.488281" y="650.324219" xlink:href="#g"/>
  <use x="342.804687" y="650.324219" xlink:href="#e"/>
  <use x="364.238281" y="650.324219" xlink:href="#r"/>
  <use x="374.558594" y="650.324219" xlink:href="#h"/>
  <use x="392.40625" y="650.324219" xlink:href="#c"/>
  <use x="413.089844" y="650.324219" xlink:href="#e"/>
  <use x="70" y="680.429688" xlink:href="#q"/>
  <use x="83.097656" y="680.429688" xlink:href="#b"/>
  <use x="97.945312" y="680.429688" xlink:href="#c"/>
  <use x="118.628906" y="680.429688" xlink:href="#p"/>
  <use x="160.484375" y="680.429688" xlink:href="#d"/>
  <use x="174.875" y="680.429688" xlink:href="#o"/>
  <use x="196.308594" y="680.429688" xlink:href="#a"/>
  <use x="227.210937" y="680.429688" xlink:href="#n"/>
  <use x="252.410156" y="680.429688" xlink:href="#c"/>
  <use x="273.09375" y="680.429688" xlink:href="#f"/>
  <use x="294.527344" y="680.429688" xlink:href="#e"/>
  <use x="326.441406" y="680.429688" xlink:href="#m"/>
  <use x="348.507812" y="680.429688" xlink:href="#b"/>
  <use x="363.355469" y="680.429688" xlink:href="#c"/>
  <use x="384.042969" y="680.429688" xlink:href="#l"/>
  <use x="394.363281" y="680.429688" xlink:href="#a"/>
  <use x="414.78125" y="680.429688" xlink:href="#h"/>
  <use x="432.628906" y="680.429688" xlink:href="#d"/>
 </g>
</svg>
